# This file uses centimeters as units for non-parametric coordinates.

mtllib AngleRamp.mtl
g default
v -2.945324 -1.082895 39.483025
v -2.801170 -1.993050 39.483025
v -2.382817 -2.814113 39.483025
v -1.731218 -3.465712 39.483025
v -0.910155 -3.884064 39.483025
v -0.000000 -4.028218 39.483025
v 0.910155 -3.884064 39.483025
v 1.731218 -3.465712 39.483025
v 2.382817 -2.814113 39.483025
v 2.801169 -1.993050 39.483025
v 2.945323 -1.082895 39.483025
v -3.283853 -2.149883 39.483025
v -3.452847 -1.163278 39.483025
v -2.793411 -3.112427 39.483025
v -2.029532 -3.876306 39.483025
v -1.066988 -4.366747 39.483025
v -0.000000 -4.535741 39.483025
v 1.066988 -4.366747 39.483025
v 2.029532 -3.876306 39.483025
v 2.793411 -3.112427 39.483025
v 3.283852 -2.149883 39.483025
v 3.452846 -1.163278 39.483025
v -2.903041 -1.167761 32.376525
v -0.002387 -1.246112 25.507188
v 6.895881 -1.246112 22.347615
v 13.003064 -1.246112 22.228659
v -3.410484 -1.246527 32.358127
v -0.376114 -1.347241 25.169340
v 6.764700 -1.347240 21.861195
v 13.001994 -1.347240 21.724861
v -2.771956 -2.058324 32.573699
v 0.132146 -2.149590 25.628807
v 6.943103 -2.149590 22.522717
v 13.003449 -2.149590 22.410014
v -3.255687 -2.211891 32.572739
v -0.220843 -2.326085 25.309703
v 6.819201 -2.326085 22.063286
v 13.002439 -2.326085 21.934172
v -2.366077 -2.861650 32.771418
v 0.467204 -2.952807 25.931697
v 7.060710 -2.952807 22.958806
v 13.004408 -2.952807 22.861685
v -2.779870 -3.153642 32.804529
v 0.171948 -3.267708 25.664789
v 6.957073 -3.267708 22.574520
v 13.003562 -3.267708 22.463669
v -1.725136 -3.499104 32.950329
v 0.969986 -3.577137 26.386214
v 7.237191 -3.577137 23.613199
v 13.005849 -3.577137 23.539454
v -2.028484 -3.900939 33.014268
v 0.761368 -3.999619 26.197623
v 7.163965 -3.999619 23.341673
v 13.005251 -3.999619 23.258229
v -0.911871 -3.908288 33.092918
v 1.591279 -3.961468 26.947861
v 7.455268 -3.961468 24.421837
v 13.007627 -3.961468 24.376980
v -1.075082 -4.380630 33.181427
v 1.489718 -4.450175 26.856051
v 7.419620 -4.450175 24.289651
v 13.007337 -4.450175 24.240073
v -0.005890 -4.049147 33.185227
v 2.270264 -4.068177 27.561664
v 7.693597 -4.068177 25.305565
v 13.009571 -4.068177 25.292279
v -0.012987 -4.545763 33.289642
v 2.285704 -4.575274 27.575620
v 7.699016 -4.575274 25.325659
v 13.009616 -4.575274 25.313092
v 0.904122 -3.907895 33.218221
v 2.940480 -3.886821 28.167538
v 7.928847 -3.886821 26.177876
v 13.011491 -3.886821 26.195755
v 1.053833 -4.380169 33.328321
v 3.071408 -4.362666 28.285896
v 7.974804 -4.362666 26.348285
v 13.011867 -4.362666 26.372250
v 1.729087 -3.498356 33.188669
v 3.536320 -3.435151 28.706176
v 8.137991 -3.435151 26.953387
v 13.013197 -3.435151 26.998970
v 2.020952 -3.900061 33.293678
v 3.769919 -3.833166 28.917349
v 8.219986 -3.833166 27.257425
v 13.013865 -3.833166 27.313870
v 2.388252 -2.860620 33.099466
v 3.999459 -2.757379 29.124853
v 8.300555 -2.757379 27.556181
v 13.014523 -2.757379 27.623299
v 2.793701 -3.152435 33.189103
v 4.312864 -3.038605 29.408171
v 8.410563 -3.038605 27.964090
v 13.015420 -3.038605 28.045779
v 2.817093 -2.057113 32.959342
v 4.284562 -1.919850 29.382586
v 8.400629 -1.919850 27.927254
v 13.015339 -1.919850 28.007628
v 3.296438 -2.210472 33.024834
v 4.647093 -2.056758 29.710315
v 8.527880 -2.056758 28.399105
v 13.016376 -2.056758 28.496336
v 2.973633 -1.166489 32.782014
v 4.363721 -1.004551 29.454147
v 8.428414 -1.004550 28.030283
v 13.015567 -1.004550 28.114338
v 3.478828 -1.245036 32.833487
v 4.742339 -1.064054 29.796416
v 8.561313 -1.064054 28.523069
v 13.016650 -1.064054 28.624729
vt 0.487500 0.688440
vt 0.500000 0.688440
vt 0.512500 0.688440
vt 0.525000 0.688440
vt 0.537500 0.688440
vt 0.550000 0.688440
vt 0.562500 0.688440
vt 0.575000 0.688440
vt 0.587500 0.688440
vt 0.600000 0.688440
vt 0.612500 0.688440
vt 0.500000 0.688440
vt 0.487500 0.688440
vt 0.512500 0.688440
vt 0.525000 0.688440
vt 0.537500 0.688440
vt 0.550000 0.688440
vt 0.562500 0.688440
vt 0.575000 0.688440
vt 0.587500 0.688440
vt 0.600000 0.688440
vt 0.612500 0.688440
vt 0.487500 0.312500
vt 0.487500 0.312500
vt 0.487500 0.312500
vt 0.487500 0.312500
vt 0.487500 0.312500
vt 0.487500 0.312500
vt 0.487500 0.312500
vt 0.487500 0.312500
vt 0.500000 0.312500
vt 0.500000 0.312500
vt 0.500000 0.312500
vt 0.500000 0.312500
vt 0.500000 0.312500
vt 0.500000 0.312500
vt 0.500000 0.312500
vt 0.500000 0.312500
vt 0.512500 0.312500
vt 0.512500 0.312500
vt 0.512500 0.312500
vt 0.512500 0.312500
vt 0.512500 0.312500
vt 0.512500 0.312500
vt 0.512500 0.312500
vt 0.512500 0.312500
vt 0.525000 0.312500
vt 0.525000 0.312500
vt 0.525000 0.312500
vt 0.525000 0.312500
vt 0.525000 0.312500
vt 0.525000 0.312500
vt 0.525000 0.312500
vt 0.525000 0.312500
vt 0.537500 0.312500
vt 0.537500 0.312500
vt 0.537500 0.312500
vt 0.537500 0.312500
vt 0.537500 0.312500
vt 0.537500 0.312500
vt 0.537500 0.312500
vt 0.537500 0.312500
vt 0.550000 0.312500
vt 0.550000 0.312500
vt 0.550000 0.312500
vt 0.550000 0.312500
vt 0.550000 0.312500
vt 0.550000 0.312500
vt 0.550000 0.312500
vt 0.550000 0.312500
vt 0.562500 0.312500
vt 0.562500 0.312500
vt 0.562500 0.312500
vt 0.562500 0.312500
vt 0.562500 0.312500
vt 0.562500 0.312500
vt 0.562500 0.312500
vt 0.562500 0.312500
vt 0.575000 0.312500
vt 0.575000 0.312500
vt 0.575000 0.312500
vt 0.575000 0.312500
vt 0.575000 0.312500
vt 0.575000 0.312500
vt 0.575000 0.312500
vt 0.575000 0.312500
vt 0.587500 0.312500
vt 0.587500 0.312500
vt 0.587500 0.312500
vt 0.587500 0.312500
vt 0.587500 0.312500
vt 0.587500 0.312500
vt 0.587500 0.312500
vt 0.587500 0.312500
vt 0.600000 0.312500
vt 0.600000 0.312500
vt 0.600000 0.312500
vt 0.600000 0.312500
vt 0.600000 0.312500
vt 0.600000 0.312500
vt 0.600000 0.312500
vt 0.600000 0.312500
vt 0.612500 0.312500
vt 0.612500 0.312500
vt 0.612500 0.312500
vt 0.612500 0.312500
vt 0.612500 0.312500
vt 0.612500 0.312500
vt 0.612500 0.312500
vt 0.612500 0.312500
vn -0.949389 -0.314102 -0.001264
vn -0.986457 -0.163991 -0.003260
vn -0.954688 -0.195768 -0.224157
vn -0.922735 -0.335148 -0.190359
vn -0.811047 -0.584979 0.001732
vn -0.790727 -0.591611 -0.157315
vn -0.588275 -0.808656 0.002885
vn -0.581484 -0.805979 -0.110786
vn -0.308633 -0.951178 0.002581
vn -0.315278 -0.947324 -0.056371
vn -0.000679 -0.999998 0.001873
vn -0.014056 -0.999901 -0.000462
vn 0.306038 -0.952018 0.001745
vn 0.293872 -0.954523 0.050243
vn 0.583258 -0.812283 0.002573
vn 0.576132 -0.812359 0.090246
vn 0.805079 -0.593154 0.003914
vn 0.801513 -0.586426 0.116970
vn 0.945338 -0.326059 0.004729
vn 0.941266 -0.310897 0.131766
vn 0.984253 -0.176702 0.004815
vn 0.975469 -0.152186 0.159060
vn 0.999998 -0.000000 -0.002124
vn 0.999998 -0.000000 -0.002124
vn 0.999998 -0.000001 -0.002124
vn 0.999998 -0.000001 -0.002124
vn 0.000000 -0.000000 1.000000
vn 0.000000 -0.000000 1.000000
vn 0.000000 -0.000000 1.000000
vn 0.000000 -0.000000 1.000000
vn -0.154675 0.987885 -0.012590
vn -0.154675 0.987885 -0.012590
vn -0.161541 0.985535 -0.051247
vn -0.160244 0.986103 -0.043842
vn 0.999998 -0.000001 -0.002127
vn 0.999998 -0.000001 -0.002127
vn 0.000000 0.000000 1.000000
vn 0.000000 0.000000 1.000000
vn 0.999998 0.000000 -0.002126
vn 0.999998 0.000000 -0.002126
vn 0.000000 0.000000 1.000000
vn 0.000000 0.000000 1.000000
vn 0.999998 0.000001 -0.002124
vn 0.999998 0.000001 -0.002124
vn 0.000000 -0.000000 1.000000
vn 0.000000 -0.000000 1.000000
vn 0.999998 0.000001 -0.002124
vn 0.999998 0.000001 -0.002124
vn 0.000000 -0.000000 1.000000
vn 0.000000 -0.000000 1.000000
vn 0.999998 0.000001 -0.002123
vn 0.999998 0.000001 -0.002123
vn 0.000000 0.000000 1.000000
vn 0.000000 0.000000 1.000000
vn 0.999998 0.000000 -0.002123
vn 0.999998 0.000000 -0.002123
vn 0.000000 -0.000000 1.000000
vn 0.000000 -0.000000 1.000000
vn 0.999998 0.000000 -0.002123
vn 0.999998 0.000000 -0.002123
vn 0.000000 -0.000000 1.000000
vn 0.000000 0.000000 1.000000
vn 0.999998 -0.000001 -0.002123
vn 0.999998 -0.000001 -0.002123
vn 0.000000 0.000000 1.000000
vn 0.000000 0.000000 1.000000
vn 0.999998 -0.000001 -0.002123
vn 0.999998 -0.000001 -0.002123
vn 0.000000 0.000000 1.000000
vn 0.000000 0.000000 1.000000
vn -0.125670 0.982561 -0.137043
vn -0.127413 0.982648 -0.134794
vn -0.048302 0.979983 -0.193133
vn -0.050214 0.979944 -0.192844
vn -0.004128 0.979870 -0.199592
vn -0.004128 0.979870 -0.199592
vn 0.953118 0.302595 0.001402
vn 0.927636 0.323255 0.187076
vn 0.957803 0.183136 0.221527
vn 0.988458 0.151460 0.003420
vn 0.871184 0.333567 0.360239
vn 0.903997 0.200904 0.377394
vn 0.408289 0.187763 0.893334
vn 0.393011 0.318237 0.862710
vn 0.228609 0.335823 0.913762
vn 0.239839 0.194393 0.951151
vn 0.017209 0.341616 0.939682
vn 0.018674 0.193978 0.980828
vn -0.902070 -0.212456 -0.375676
vn -0.868061 -0.344485 -0.357491
vn -0.394910 -0.329653 -0.857540
vn -0.411116 -0.199642 -0.889453
vn -0.243916 -0.206643 -0.947525
vn -0.231907 -0.347182 -0.908671
vn -0.020908 -0.206172 -0.978292
vn -0.019201 -0.352730 -0.935528
vn 0.810882 0.585207 -0.001926
vn 0.791112 0.591819 0.154569
vn 0.573430 0.610912 0.545862
vn 0.189846 0.603290 0.774596
vn 0.012838 0.612349 0.790483
vn -0.576493 -0.610689 -0.542876
vn -0.193225 -0.603082 -0.773923
vn -0.014407 -0.612102 -0.790648
vn 0.588138 0.808753 -0.003505
vn 0.581188 0.806437 0.108998
vn 0.419160 0.817382 0.395211
vn 0.132816 0.817160 0.560900
vn 0.007357 0.826338 0.563126
vn -0.421960 -0.817158 -0.392686
vn -0.134877 -0.816882 -0.560813
vn -0.008232 -0.826072 -0.563504
vn 0.308581 0.951191 -0.003763
vn 0.314434 0.947654 0.055518
vn 0.226850 0.950746 0.211239
vn 0.065111 0.955073 0.289131
vn 0.002610 0.960700 0.277577
vn -0.229000 -0.950571 -0.209699
vn -0.065962 -0.954854 -0.289660
vn -0.002894 -0.960535 -0.278144
vn 0.000701 0.999994 -0.003534
vn 0.013109 0.999914 0.000104
vn 0.013418 0.999887 0.006777
vn -0.003715 0.999854 -0.016657
vn 0.000370 0.999273 -0.038119
vn -0.014797 -0.999868 -0.006721
vn 0.003340 -0.999869 0.015825
vn -0.000458 -0.999296 0.037516
vn -0.305980 0.952031 -0.003592
vn -0.294493 0.954290 -0.051033
vn -0.202096 0.957627 -0.205204
vn -0.064045 0.943321 -0.325645
vn 0.001622 0.936568 -0.350482
vn 0.201179 -0.958140 0.203702
vn 0.062736 -0.943578 0.325155
vn -0.002131 -0.936730 0.350047
vn -0.583177 0.812334 -0.004233
vn -0.576273 0.811989 -0.092647
vn -0.398303 0.820500 -0.410043
vn -0.108969 0.789730 -0.603699
vn 0.005988 0.779887 -0.625891
vn 0.397035 -0.822083 0.408096
vn 0.104976 -0.789944 0.604127
vn -0.007534 -0.780026 0.625702
vn -0.804975 0.593287 -0.005096
vn -0.801202 0.585861 -0.121828
vn -0.774179 0.556718 -0.301185
vn -0.286368 0.555222 -0.780847
vn -0.136576 0.556453 -0.819578
vn 0.011694 0.547781 -0.836540
vn 0.774592 -0.558530 0.296734
vn 0.278164 -0.555734 0.783444
vn 0.128723 -0.556353 0.820915
vn -0.014576 -0.547793 0.836487
vn -0.949200 0.314627 -0.005343
vn -0.944271 0.298684 -0.138345
vn -0.896106 0.260745 -0.359174
vn -0.322948 0.267867 -0.907718
vn -0.149754 0.269915 -0.951167
vn 0.016274 0.265392 -0.964003
vn 0.894583 -0.273151 0.353708
vn 0.309935 -0.278624 0.909015
vn 0.138116 -0.280878 0.949754
vn -0.020136 -0.276731 0.960737
vn -0.986413 0.164206 -0.005133
vn -0.976130 0.138428 -0.167357
vn -0.921030 0.098133 -0.376926
vn -0.330019 0.108711 -0.937694
vn -0.152004 0.112981 -0.981901
vn 0.017751 0.113544 -0.993374
vn 0.155602 0.987752 -0.011601
vn 0.139787 0.989795 0.027662
vn 0.142189 0.989601 0.021744
vn 0.155602 0.987752 -0.011601
vn 0.070691 0.991494 0.109281
vn 0.074463 0.991322 0.108333
vn 0.016081 0.992928 0.117624
vn 0.019022 0.992886 0.117541
vn -0.002426 0.992996 0.118124
vn -0.002426 0.992996 0.118124
vn 0.921109 -0.110537 0.373282
vn 0.315917 -0.120053 0.941161
vn 0.139233 -0.124866 0.982356
vn -0.022056 -0.125691 0.991824
s 1
g pCylinder2
usemtl initialShadingGroup
f 12/12/1 13/13/2 27/23/3 35/35/4
f 14/14/5 12/12/1 35/35/4 43/43/6
f 15/15/7 14/14/5 43/43/6 51/51/8
f 16/16/9 15/15/7 51/51/8 59/59/10
f 17/17/11 16/16/9 59/59/10 67/67/12
f 18/18/13 17/17/11 67/67/12 75/75/14
f 19/19/15 18/18/13 75/75/14 83/83/16
f 20/20/17 19/19/15 83/83/16 91/91/18
f 21/21/19 20/20/17 91/91/18 99/99/20
f 22/22/21 21/21/19 99/99/20 107/107/22
s 2
f 30/26/23 26/30/24 34/34/25 38/38/26
s 3
f 2/2/27 1/1/28 13/13/29 12/12/30
s 4
f 13/13/31 1/1/32 23/27/33 27/23/34
s 2
f 38/38/26 34/34/25 42/42/35 46/46/36
s 3
f 14/14/37 3/3/38 2/2/27 12/12/30
s 2
f 46/46/36 42/42/35 50/50/39 54/54/40
s 3
f 15/15/41 4/4/42 3/3/38 14/14/37
s 2
f 54/54/40 50/50/39 58/58/43 62/62/44
s 3
f 16/16/45 5/5/46 4/4/42 15/15/41
s 2
f 62/62/44 58/58/43 66/66/47 70/70/48
s 3
f 17/17/49 6/6/50 5/5/46 16/16/45
s 2
f 70/70/48 66/66/47 74/74/51 78/78/52
s 3
f 18/18/53 7/7/54 6/6/50 17/17/49
s 2
f 78/78/52 74/74/51 82/82/55 86/86/56
s 3
f 19/19/57 8/8/58 7/7/54 18/18/53
s 2
f 86/86/56 82/82/55 90/90/59 94/94/60
s 3
f 20/20/61 9/9/62 8/8/58 19/19/57
s 2
f 94/94/60 90/90/59 98/98/63 102/102/64
s 3
f 21/21/65 10/10/66 9/9/62 20/20/61
s 2
f 98/98/63 106/106/67 110/110/68 102/102/64
s 3
f 22/22/69 11/11/70 10/10/66 21/21/65
s 4
f 27/23/34 23/27/33 24/28/71 28/24/72
f 28/24/72 24/28/71 25/29/73 29/25/74
f 29/25/74 25/29/73 26/30/75 30/26/76
s 5
f 2/2/77 31/31/78 23/27/79 1/1/80
f 23/27/79 31/31/78 32/32/81 24/28/82
f 24/28/83 32/32/84 33/33/85 25/29/86
f 25/29/86 33/33/85 34/34/87 26/30/88
s 1
f 35/35/4 27/23/3 28/24/89 36/36/90
f 36/36/91 28/24/92 29/25/93 37/37/94
f 37/37/94 29/25/93 30/26/95 38/38/96
s 5
f 3/3/97 39/39/98 31/31/78 2/2/77
f 31/31/78 39/39/98 40/40/99 32/32/81
f 32/32/84 40/40/99 41/41/100 33/33/85
f 33/33/85 41/41/100 42/42/101 34/34/87
s 1
f 43/43/6 35/35/4 36/36/90 44/44/102
f 44/44/102 36/36/91 37/37/94 45/45/103
f 45/45/103 37/37/94 38/38/96 46/46/104
s 5
f 4/4/105 47/47/106 39/39/98 3/3/97
f 39/39/98 47/47/106 48/48/107 40/40/99
f 40/40/99 48/48/107 49/49/108 41/41/100
f 41/41/100 49/49/108 50/50/109 42/42/101
s 1
f 51/51/8 43/43/6 44/44/102 52/52/110
f 52/52/110 44/44/102 45/45/103 53/53/111
f 53/53/111 45/45/103 46/46/104 54/54/112
s 5
f 5/5/113 55/55/114 47/47/106 4/4/105
f 47/47/106 55/55/114 56/56/115 48/48/107
f 48/48/107 56/56/115 57/57/116 49/49/108
f 49/49/108 57/57/116 58/58/117 50/50/109
s 1
f 59/59/10 51/51/8 52/52/110 60/60/118
f 60/60/118 52/52/110 53/53/111 61/61/119
f 61/61/119 53/53/111 54/54/112 62/62/120
s 5
f 6/6/121 63/63/122 55/55/114 5/5/113
f 55/55/114 63/63/122 64/64/123 56/56/115
f 56/56/115 64/64/123 65/65/124 57/57/116
f 57/57/116 65/65/124 66/66/125 58/58/117
s 1
f 67/67/12 59/59/10 60/60/118 68/68/126
f 68/68/126 60/60/118 61/61/119 69/69/127
f 69/69/127 61/61/119 62/62/120 70/70/128
s 5
f 7/7/129 71/71/130 63/63/122 6/6/121
f 63/63/122 71/71/130 72/72/131 64/64/123
f 64/64/123 72/72/131 73/73/132 65/65/124
f 65/65/124 73/73/132 74/74/133 66/66/125
s 1
f 75/75/14 67/67/12 68/68/126 76/76/134
f 76/76/134 68/68/126 69/69/127 77/77/135
f 77/77/135 69/69/127 70/70/128 78/78/136
s 5
f 8/8/137 79/79/138 71/71/130 7/7/129
f 71/71/130 79/79/138 80/80/139 72/72/131
f 72/72/131 80/80/139 81/81/140 73/73/132
f 73/73/132 81/81/140 82/82/141 74/74/133
s 1
f 83/83/16 75/75/14 76/76/134 84/84/142
f 84/84/142 76/76/134 77/77/135 85/85/143
f 85/85/143 77/77/135 78/78/136 86/86/144
s 5
f 9/9/145 87/87/146 79/79/138 8/8/137
f 79/79/138 87/87/146 88/88/147 80/80/139
f 80/80/139 88/88/148 89/89/149 81/81/140
f 81/81/140 89/89/149 90/90/150 82/82/141
s 1
f 91/91/18 83/83/16 84/84/142 92/92/151
f 92/92/152 84/84/142 85/85/143 93/93/153
f 93/93/153 85/85/143 86/86/144 94/94/154
s 5
f 10/10/155 95/95/156 87/87/146 9/9/145
f 87/87/146 95/95/156 96/96/157 88/88/147
f 88/88/148 96/96/158 97/97/159 89/89/149
f 89/89/149 97/97/159 98/98/160 90/90/150
s 1
f 99/99/20 91/91/18 92/92/151 100/100/161
f 100/100/162 92/92/152 93/93/153 101/101/163
f 101/101/163 93/93/153 94/94/154 102/102/164
s 5
f 11/11/165 103/103/166 95/95/156 10/10/155
f 95/95/156 103/103/166 104/104/167 96/96/157
f 96/96/158 104/104/168 105/105/169 97/97/159
f 97/97/159 105/105/169 106/106/170 98/98/160
s 8
f 22/22/171 107/107/172 103/103/173 11/11/174
f 103/103/173 107/107/172 108/108/175 104/104/176
f 104/104/176 108/108/175 109/109/177 105/105/178
f 105/105/178 109/109/177 110/110/179 106/106/180
s 1
f 107/107/22 99/99/20 100/100/161 108/108/181
f 108/108/182 100/100/162 101/101/163 109/109/183
f 109/109/183 101/101/163 102/102/164 110/110/184
