# This file uses centimeters as units for non-parametric coordinates.

mtllib spiralRamp.mtl
g default
v 1.255610 10.960902 43.412191
v 0.824564 10.383096 44.738880
v 0.393518 10.960904 46.065569
v 0.214973 12.355861 46.615101
v 1.434155 12.355861 42.862658
v -3.228758 12.172254 43.412251
v -2.797676 11.594445 44.738929
v -2.366595 12.172254 46.065606
v -2.188035 13.567211 46.615133
v -3.407318 13.567211 42.862724
v -7.523848 13.343620 47.164853
v -6.267028 12.765811 47.770087
v -5.010208 13.343620 48.375320
v -4.489617 14.738577 48.626015
v -8.044440 14.738577 46.914158
v -7.779662 14.514986 52.862605
v -6.473661 13.937177 52.372436
v -5.167661 14.514986 51.882266
v -4.626698 15.909943 51.679232
v -8.320625 15.909943 53.065640
v -3.838137 15.686352 56.985008
v -3.289902 15.108543 55.702300
v -2.741666 15.686352 54.419591
v -2.514579 17.081309 53.888276
v -4.065224 17.081309 57.516324
v 1.865354 16.857718 56.984931
v 1.317084 16.279909 55.702237
v 0.768814 16.857718 54.419544
v 0.541713 18.252675 53.888235
v 2.092455 18.252675 57.516240
v 5.806768 18.029084 52.862422
v 4.500754 17.451275 52.372288
v 3.194740 18.029084 51.882154
v 2.653772 19.424041 51.679134
v 6.347737 19.424041 53.065443
v 5.550801 19.200450 47.164678
v 4.293998 18.622641 47.769944
v 3.037194 19.200450 48.375211
v 2.516609 20.595407 48.625921
v 6.071386 20.595407 46.913968
v 1.255610 20.371816 43.412191
v 0.824564 19.794007 44.738880
v 0.393518 20.371816 46.065569
v 0.214973 21.766773 46.615101
v 1.434155 21.766773 42.862659
v 1.588621 12.249240 42.657619
v -3.511110 13.468165 42.645230
v -8.263973 14.640925 46.827398
v -8.535045 15.812291 53.164361
v -4.142046 16.983657 57.739527
v 2.200697 18.155023 57.726016
v 6.574163 19.326389 53.132174
v 6.276094 20.497755 46.796423
v 1.588621 21.669121 42.657619
v 1.118161 10.055960 43.384620
v -3.587525 11.353359 43.659351
v -7.599822 12.505650 47.547010
v -7.554927 13.677489 53.181660
v -3.452222 14.848855 57.043057
v 2.174005 16.020221 56.746109
v 5.847447 17.191585 52.474291
v 5.338398 18.333712 46.803659
v 1.118161 19.475842 43.384620
v -0.076194 12.203562 46.864885
v -2.120579 13.422612 46.963934
v -4.196983 14.595247 48.823000
v -4.282090 15.766613 51.603846
v -2.330922 16.937979 53.587099
v 0.450943 18.109345 53.547356
v 2.344659 19.280711 51.509174
v 2.180146 20.452077 48.731894
v -0.076194 21.623444 46.864885
v 0.256196 10.582775 45.972398
v -3.095974 11.774995 46.547816
v -5.170378 12.945926 49.075724
v -4.775966 14.119376 52.482194
v -2.037356 15.290742 54.551064
v 1.350564 16.462108 54.001327
v 3.294482 17.633474 51.172654
v 2.630228 18.818066 47.795296
v 0.256196 20.002656 45.972398
vt 0.375000 0.634734
vt 0.406250 0.634734
vt 0.437500 0.634734
vt 0.468750 0.634734
vt 0.593750 0.634734
vt 0.625000 0.634734
vt 0.375000 0.641447
vt 0.406250 0.641447
vt 0.437500 0.641447
vt 0.468750 0.641447
vt 0.593750 0.641447
vt 0.625000 0.641447
vt 0.375000 0.648161
vt 0.406250 0.648161
vt 0.437500 0.648161
vt 0.468750 0.648161
vt 0.593750 0.648161
vt 0.625000 0.648161
vt 0.375000 0.654874
vt 0.406250 0.654874
vt 0.437500 0.654874
vt 0.468750 0.654874
vt 0.593750 0.654874
vt 0.625000 0.654874
vt 0.375000 0.661587
vt 0.406250 0.661587
vt 0.437500 0.661587
vt 0.468750 0.661587
vt 0.593750 0.661587
vt 0.625000 0.661587
vt 0.375000 0.668300
vt 0.406250 0.668300
vt 0.437500 0.668300
vt 0.468750 0.668300
vt 0.593750 0.668300
vt 0.625000 0.668300
vt 0.375000 0.675013
vt 0.406250 0.675013
vt 0.437500 0.675013
vt 0.468750 0.675013
vt 0.593750 0.675013
vt 0.625000 0.675013
vt 0.375000 0.681727
vt 0.406250 0.681727
vt 0.437500 0.681727
vt 0.468750 0.681727
vt 0.593750 0.681727
vt 0.625000 0.681727
vt 0.375000 0.688440
vt 0.406250 0.688440
vt 0.437500 0.688440
vt 0.468750 0.688440
vt 0.593750 0.688440
vt 0.625000 0.688440
vt 0.000000 0.000000
vt 1.000000 0.000000
vt 1.000000 1.000000
vt 0.000000 1.000000
vt 0.000000 0.000000
vt 1.000000 0.000000
vt 1.000000 1.000000
vt 0.000000 1.000000
vt 0.000000 0.000000
vt 1.000000 0.000000
vt 1.000000 1.000000
vt 0.000000 1.000000
vt 0.000000 0.000000
vt 1.000000 0.000000
vt 1.000000 1.000000
vt 0.000000 1.000000
vt 0.000000 0.000000
vt 1.000000 0.000000
vt 1.000000 1.000000
vt 0.000000 1.000000
vt 0.000000 0.000000
vt 1.000000 0.000000
vt 1.000000 1.000000
vt 0.000000 1.000000
vt 0.000000 0.000000
vt 1.000000 0.000000
vt 1.000000 1.000000
vt 0.000000 1.000000
vt 0.000000 0.000000
vt 1.000000 0.000000
vt 1.000000 1.000000
vt 0.000000 1.000000
vt 0.000000 0.000000
vt 1.000000 0.000000
vt 1.000000 1.000000
vt 0.000000 1.000000
vt 0.000000 0.000000
vt 1.000000 0.000000
vt 1.000000 1.000000
vt 0.000000 1.000000
vt 0.000000 0.000000
vt 1.000000 0.000000
vt 1.000000 1.000000
vt 0.000000 1.000000
vt 0.000000 0.000000
vt 1.000000 0.000000
vt 1.000000 1.000000
vt 0.000000 1.000000
vt 0.000000 0.000000
vt 1.000000 0.000000
vt 1.000000 1.000000
vt 0.000000 1.000000
vt 0.000000 0.000000
vt 1.000000 0.000000
vt 1.000000 1.000000
vt 0.000000 1.000000
vt 0.000000 0.000000
vt 1.000000 0.000000
vt 1.000000 1.000000
vt 0.000000 1.000000
vt 0.000000 0.000000
vt 1.000000 0.000000
vt 1.000000 1.000000
vt 0.000000 1.000000
vt 0.000000 0.000000
vt 1.000000 0.000000
vt 1.000000 1.000000
vt 0.000000 1.000000
vt 0.000000 0.000000
vt 1.000000 0.000000
vt 1.000000 1.000000
vt 0.000000 1.000000
vt 0.000000 0.000000
vt 1.000000 0.000000
vt 1.000000 1.000000
vt 0.000000 1.000000
vt 0.000000 0.000000
vt 1.000000 0.000000
vt 1.000000 1.000000
vt 0.000000 1.000000
vt 0.000000 0.000000
vt 1.000000 0.000000
vt 1.000000 1.000000
vt 0.000000 1.000000
vt 0.000000 0.000000
vt 1.000000 0.000000
vt 1.000000 1.000000
vt 0.000000 1.000000
vt 0.000000 0.000000
vt 1.000000 0.000000
vt 1.000000 1.000000
vt 0.000000 1.000000
vt 0.000000 0.000000
vt 1.000000 0.000000
vt 1.000000 1.000000
vt 0.000000 1.000000
vt 0.000000 0.000000
vt 1.000000 0.000000
vt 1.000000 1.000000
vt 0.000000 1.000000
vt 0.000000 0.000000
vt 1.000000 0.000000
vt 1.000000 1.000000
vt 0.000000 1.000000
vt 0.000000 0.000000
vt 1.000000 0.000000
vt 1.000000 1.000000
vt 0.000000 1.000000
vt 0.000000 0.000000
vt 1.000000 0.000000
vt 1.000000 1.000000
vt 0.000000 1.000000
vt 0.000000 0.000000
vt 1.000000 0.000000
vt 1.000000 1.000000
vt 0.000000 1.000000
vt 0.000000 0.000000
vt 1.000000 0.000000
vt 1.000000 1.000000
vt 0.000000 1.000000
vt 0.000000 0.000000
vt 1.000000 0.000000
vt 1.000000 1.000000
vt 0.000000 1.000000
vt 0.000000 0.000000
vt 1.000000 0.000000
vt 1.000000 1.000000
vt 0.000000 1.000000
vt 0.000000 0.000000
vt 1.000000 0.000000
vt 1.000000 1.000000
vt 0.000000 1.000000
vt 0.000000 0.000000
vt 1.000000 0.000000
vt 1.000000 1.000000
vt 0.000000 1.000000
vt 0.000000 0.000000
vt 1.000000 0.000000
vt 1.000000 1.000000
vt 0.000000 1.000000
vt 0.000000 0.000000
vt 1.000000 0.000000
vt 1.000000 1.000000
vt 0.000000 1.000000
vt 0.000000 0.000000
vt 1.000000 0.000000
vt 1.000000 1.000000
vt 0.000000 1.000000
vt 0.000000 0.000000
vt 1.000000 0.000000
vt 1.000000 1.000000
vt 0.000000 1.000000
vt 0.000000 0.000000
vt 1.000000 0.000000
vt 1.000000 1.000000
vt 0.000000 1.000000
vt 0.000000 0.000000
vt 1.000000 0.000000
vt 1.000000 1.000000
vt 0.000000 1.000000
vn 0.264262 0.884230 0.385102
vn 0.354524 0.896849 0.264529
vn 0.348547 0.896636 0.273055
vn 0.264262 0.884230 0.385102
vn 0.328678 0.865882 -0.377120
vn 0.138365 0.892382 -0.429546
vn 0.092930 0.893481 -0.439380
vn 0.328678 0.865882 -0.377120
vn 0.169485 0.361223 -0.916948
vn -0.136180 0.381238 -0.914392
vn -0.308794 0.376478 -0.873448
vn 0.169485 0.361223 -0.916948
vn 0.094801 0.364874 0.926218
vn 0.473002 0.376912 0.796371
vn 0.401232 0.379416 0.833700
vn 0.094801 0.364874 0.926218
vn 0.420512 0.907066 -0.020041
vn 0.420924 0.907094 0.001663
vn -0.218111 0.897193 -0.384022
vn -0.242339 0.897232 -0.369117
vn -0.723290 0.378384 -0.577648
vn -0.812570 0.378542 -0.443210
vn 0.877251 0.381309 0.291607
vn 0.843833 0.381404 0.377463
vn 0.276115 0.907066 -0.317793
vn 0.292087 0.907094 -0.303093
vn -0.428298 0.897192 -0.107734
vn -0.434267 0.897232 -0.079922
vn -0.917359 0.378384 0.123600
vn -0.881887 0.378542 0.281037
vn 0.817007 0.381308 -0.432554
vn 0.855969 0.381404 -0.349068
vn -0.038887 0.907066 -0.419189
vn -0.017224 0.907094 -0.420575
vn -0.373850 0.897192 0.235122
vn -0.357873 0.897231 0.258657
vn -0.544616 0.378385 0.748478
vn -0.406308 0.378543 0.831636
vn 0.251955 0.381307 -0.889451
vn 0.339223 0.381403 -0.859918
vn -0.329861 0.907066 -0.261578
vn -0.315893 0.907094 -0.278193
vn -0.088409 0.897192 0.432702
vn -0.060358 0.897231 0.437417
vn 0.164633 0.378385 0.910890
vn 0.320319 0.378543 0.868390
vn -0.468773 0.381308 -0.796779
vn -0.387119 0.381403 -0.839447
vn -0.417023 0.907066 0.057656
vn -0.419379 0.907094 0.036077
vn 0.251657 0.897193 0.362924
vn 0.274451 0.897232 0.345907
vn 0.772159 0.378384 0.510487
vn 0.849028 0.378542 0.368587
vn -0.899859 0.381308 -0.211796
vn -0.874271 0.381403 -0.300302
vn -0.246516 0.907066 0.341265
vn -0.263741 0.907094 0.328056
vn 0.436231 0.897193 0.068907
vn 0.439683 0.897232 0.040672
vn 0.902587 0.378384 -0.205335
vn 0.853144 0.378542 -0.358958
vn -0.774944 0.381308 0.504050
vn -0.821233 0.381403 0.424392
vn -0.111831 0.892806 0.436340
vn -0.111831 0.892806 0.436340
vn 0.452966 0.881748 -0.131692
vn 0.452966 0.881748 -0.131692
vn 0.704808 0.353101 -0.615277
vn 0.704808 0.353101 -0.615277
vn -0.560514 0.355060 0.748169
vn -0.560514 0.355060 0.748169
vn 0.010376 0.906468 -0.422148
vn 0.217497 0.887626 -0.405974
vn 0.217497 0.887626 -0.405974
vn 0.012725 0.906475 -0.422068
vn -0.281159 0.908512 -0.309119
vn -0.279010 0.908510 -0.311067
vn -0.418203 0.908312 -0.008703
vn -0.418137 0.908311 -0.011494
vn -0.295296 0.908312 0.296258
vn -0.297268 0.908312 0.294282
vn 0.010066 0.908313 0.418171
vn 0.007275 0.908312 0.418230
vn 0.309208 0.908312 0.281709
vn 0.307322 0.908311 0.283768
vn 0.396692 0.917921 -0.007538
vn 0.397086 0.917765 -0.005547
vn 0.363836 0.919086 -0.151343
vn 0.363836 0.919086 -0.151343
vn -0.116985 -0.359333 -0.925848
vn -0.116985 -0.359333 -0.925848
vn -0.116985 -0.359333 -0.925848
vn -0.116985 -0.359333 -0.925848
vn -0.682431 -0.355017 -0.638945
vn -0.682431 -0.355017 -0.638946
vn -0.682431 -0.355017 -0.638946
vn -0.682431 -0.355017 -0.638946
vn -0.934910 -0.351189 0.051075
vn -0.934910 -0.351189 0.051075
vn -0.934910 -0.351189 0.051075
vn -0.934910 -0.351189 0.051075
vn -0.609147 -0.351348 0.710982
vn -0.609147 -0.351348 0.710982
vn -0.609147 -0.351348 0.710982
vn -0.609147 -0.351348 0.710982
vn 0.092936 -0.351348 0.931621
vn 0.092936 -0.351348 0.931621
vn 0.092936 -0.351348 0.931621
vn 0.092936 -0.351348 0.931621
vn 0.737595 -0.351348 0.576635
vn 0.737595 -0.351348 0.576635
vn 0.737595 -0.351348 0.576635
vn 0.737595 -0.351348 0.576635
vn 0.931218 -0.341122 -0.128331
vn 0.931218 -0.341122 -0.128330
vn 0.931218 -0.341122 -0.128331
vn 0.931218 -0.341122 -0.128331
vn 0.566402 -0.311606 -0.762948
vn 0.566402 -0.311606 -0.762948
vn 0.566402 -0.311606 -0.762948
vn 0.566402 -0.311606 -0.762948
vn 0.417349 0.742338 0.524171
vn 0.495123 0.819572 0.288367
vn 0.494294 0.818897 0.291687
vn 0.417349 0.742338 0.524171
vn 0.496184 0.859955 -0.119494
vn 0.497668 0.859983 -0.112942
vn 0.257861 0.859337 -0.441642
vn 0.263600 0.859340 -0.438234
vn -0.141018 0.859336 -0.491584
vn -0.134589 0.859340 -0.493377
vn -0.452766 0.859337 -0.237788
vn -0.449619 0.859340 -0.243674
vn -0.484761 0.859337 0.162932
vn -0.486841 0.859340 0.156590
vn -0.225294 0.848874 0.478180
vn -0.229843 0.849127 0.475558
vn -0.056506 0.823780 0.564086
vn -0.056506 0.823780 0.564086
vn -0.046113 -0.363468 0.930465
vn -0.046113 -0.363468 0.930465
vn -0.046113 -0.363468 0.930465
vn -0.046113 -0.363468 0.930465
vn 0.567073 -0.371621 0.735069
vn 0.567073 -0.371621 0.735069
vn 0.567073 -0.371621 0.735069
vn 0.567073 -0.371621 0.735069
vn 0.921216 -0.376828 0.096755
vn 0.921216 -0.376828 0.096755
vn 0.921216 -0.376828 0.096755
vn 0.921216 -0.376828 0.096755
vn 0.706150 -0.377814 -0.598840
vn 0.706150 -0.377814 -0.598840
vn 0.706150 -0.377814 -0.598840
vn 0.706150 -0.377814 -0.598840
vn 0.055156 -0.377814 -0.924237
vn 0.055156 -0.377814 -0.924237
vn 0.055156 -0.377814 -0.924237
vn 0.055156 -0.377814 -0.924237
vn -0.629918 -0.377814 -0.678572
vn -0.629918 -0.377814 -0.678572
vn -0.629918 -0.377814 -0.678572
vn -0.629918 -0.377814 -0.678572
vn -0.922737 -0.384741 -0.023024
vn -0.922737 -0.384741 -0.023024
vn -0.922737 -0.384741 -0.023024
vn -0.922737 -0.384741 -0.023024
vn -0.683382 -0.475569 0.553916
vn -0.683382 -0.475569 0.553916
vn -0.683382 -0.475569 0.553916
vn -0.683382 -0.475569 0.553916
vn -0.208667 -0.959484 0.189339
vn -0.277993 -0.949478 0.145640
vn -0.277993 -0.949478 0.145640
vn -0.170669 -0.962167 0.212383
vn -0.004854 -0.967993 0.250931
vn 0.031576 -0.967923 0.249256
vn 0.182777 -0.967409 0.175248
vn 0.205057 -0.967424 0.148465
vn 0.253051 -0.967385 -0.011441
vn 0.249065 -0.967396 -0.045951
vn 0.166604 -0.967385 -0.190811
vn 0.138906 -0.967396 -0.211777
vn -0.028035 -0.967691 -0.250576
vn -0.063216 -0.967581 -0.244520
vn -0.218250 -0.964108 -0.151206
vn -0.238874 -0.962941 -0.125239
vn -0.306342 -0.951208 -0.036836
vn -0.306342 -0.951208 -0.036836
vn -0.622640 0.715904 -0.315912
vn -0.728360 0.382524 -0.568478
vn -0.638559 0.293206 -0.711529
vn -0.593065 0.263342 -0.760871
vn -0.593065 0.263342 -0.760871
vn -0.952384 0.156797 -0.261495
vn -0.951551 0.089597 -0.294149
vn -0.946412 0.058162 -0.317681
vn -0.946412 0.058162 -0.317681
vn 0.951231 -0.088630 0.295472
vn 0.952327 -0.155416 0.262524
vn 0.945916 -0.057505 0.319274
vn 0.945916 -0.057505 0.319274
vn 0.646433 -0.692613 0.320017
vn 0.734789 -0.376219 0.564397
vn 0.644719 -0.289449 0.707500
vn 0.599166 -0.260488 0.757064
vn 0.599166 -0.260488 0.757064
s 1
g pHelix1
usemtl initialShadingGroup
f 1/1/1 6/7/2 7/8/3 2/2/4
s 2
f 2/2/5 7/8/6 8/9/7 3/3/8
s 3
f 3/3/9 8/9/10 9/10/11 4/4/12
s 4
f 5/5/13 10/11/14 6/12/15 1/6/16
s 1
f 6/7/2 11/13/17 12/14/18 7/8/3
s 2
f 7/8/6 12/14/19 13/15/20 8/9/7
s 3
f 8/9/10 13/15/21 14/16/22 9/10/11
s 4
f 10/11/14 15/17/23 11/18/24 6/12/15
s 1
f 11/13/17 16/19/25 17/20/26 12/14/18
s 2
f 12/14/19 17/20/27 18/21/28 13/15/20
s 3
f 13/15/21 18/21/29 19/22/30 14/16/22
s 4
f 15/17/23 20/23/31 16/24/32 11/18/24
s 1
f 16/19/25 21/25/33 22/26/34 17/20/26
s 2
f 17/20/27 22/26/35 23/27/36 18/21/28
s 3
f 18/21/29 23/27/37 24/28/38 19/22/30
s 4
f 20/23/31 25/29/39 21/30/40 16/24/32
s 1
f 21/25/33 26/31/41 27/32/42 22/26/34
s 2
f 22/26/35 27/32/43 28/33/44 23/27/36
s 3
f 23/27/37 28/33/45 29/34/46 24/28/38
s 4
f 25/29/39 30/35/47 26/36/48 21/30/40
s 1
f 26/31/41 31/37/49 32/38/50 27/32/42
s 2
f 27/32/43 32/38/51 33/39/52 28/33/44
s 3
f 28/33/45 33/39/53 34/40/54 29/34/46
s 4
f 30/35/47 35/41/55 31/42/56 26/36/48
s 1
f 31/37/49 36/43/57 37/44/58 32/38/50
s 2
f 32/38/51 37/44/59 38/45/60 33/39/52
s 3
f 33/39/53 38/45/61 39/46/62 34/40/54
s 4
f 35/41/55 40/47/63 36/48/64 31/42/56
s 1
f 36/43/57 41/49/65 42/50/66 37/44/58
s 2
f 37/44/59 42/50/67 43/51/68 38/45/60
s 3
f 38/45/61 43/51/69 44/52/70 39/46/62
s 4
f 40/47/63 45/53/71 41/54/72 36/48/64
s 5
f 10/55/73 5/56/74 46/57/75 47/58/76
f 15/59/77 10/60/73 47/61/76 48/62/78
f 20/63/79 15/64/77 48/65/78 49/66/80
f 25/67/81 20/68/79 49/69/80 50/70/82
f 30/71/83 25/72/81 50/73/82 51/74/84
f 35/75/85 30/76/83 51/77/84 52/78/86
f 40/79/87 35/80/85 52/81/86 53/82/88
f 45/83/89 40/84/87 53/85/88 54/86/90
s off
f 47/87/91 46/88/92 55/89/93 56/90/94
f 48/91/95 47/92/96 56/93/97 57/94/98
f 49/95/99 48/96/100 57/97/101 58/98/102
f 50/99/103 49/100/104 58/101/105 59/102/106
f 51/103/107 50/104/108 59/105/109 60/106/110
f 52/107/111 51/108/112 60/109/113 61/110/114
f 53/111/115 52/112/116 61/113/117 62/114/118
f 54/115/119 53/116/120 62/117/121 63/118/122
s 6
f 4/119/123 9/120/124 65/121/125 64/122/126
f 9/123/124 14/124/127 66/125/128 65/126/125
f 14/127/127 19/128/129 67/129/130 66/130/128
f 19/131/129 24/132/131 68/133/132 67/134/130
f 24/135/131 29/136/133 69/137/134 68/138/132
f 29/139/133 34/140/135 70/141/136 69/142/134
f 34/143/135 39/144/137 71/145/138 70/146/136
f 39/147/137 44/148/139 72/149/140 71/150/138
s off
f 64/151/141 65/152/142 74/153/143 73/154/144
f 65/155/145 66/156/146 75/157/147 74/158/148
f 66/159/149 67/160/150 76/161/151 75/162/152
f 67/163/153 68/164/154 77/165/155 76/166/156
f 68/167/157 69/168/158 78/169/159 77/170/160
f 69/171/161 70/172/162 79/173/163 78/174/164
f 70/175/165 71/176/166 80/177/167 79/178/168
f 71/179/169 72/180/170 81/181/171 80/182/172
s 7
f 56/183/173 55/184/174 73/185/175 74/186/176
f 57/187/177 56/188/173 74/189/176 75/190/178
f 58/191/179 57/192/177 75/193/178 76/194/180
f 59/195/181 58/196/179 76/197/180 77/198/182
f 60/199/183 59/200/181 77/201/182 78/202/184
f 61/203/185 60/204/183 78/205/184 79/206/186
f 62/207/187 61/208/185 79/209/186 80/210/188
f 63/211/189 62/212/187 80/213/188 81/214/190
s 8
f 42/50/191 81/181/192 43/51/193
f 43/51/193 81/181/192 72/149/194 44/52/195
f 42/50/191 63/211/196 81/181/192
f 42/50/191 41/54/197 63/211/196
f 63/211/196 41/54/197 45/83/198 54/115/199
s 9
f 1/1/200 55/89/201 46/57/202 5/5/203
f 2/2/204 73/185/205 55/89/201
f 2/2/204 55/89/201 1/1/200
f 73/185/205 3/3/206 4/119/207 64/151/208
f 2/2/204 3/3/206 73/185/205
